<?xml version="1.0" encoding="UTF-8" standalone="no"?>
<!DOCTYPE svg PUBLIC "-//W3C//DTD SVG 1.1//EN" "http://www.w3.org/Graphics/SVG/1.1/DTD/svg11.dtd">
<svg xmlns="http://www.w3.org/2000/svg" xmlns:xl="http://www.w3.org/1999/xlink" version="1.1" viewBox="12 9 81 39"
     width="81pt" height="39pt" xmlns:dc="http://purl.org/dc/elements/1.1/">
    <metadata>Produced by OmniGraffle 6.5.2
        <dc:date>2016-09-28 00:07:27 +0000</dc:date>
    </metadata>
    <defs/>
    <g stroke="none" stroke-opacity="1" stroke-dasharray="none" fill="none" fill-opacity="1">
        <title>Canvas 1</title>
        <g>
            <title>Layer 1</title>
            <path d="M 73.45037 28.329404 C 73.442814 23.982404 70.546687 19.636748 64.76199 16.320095 C 53.177524 9.6780784 34.395406 9.6780784 22.810938 16.320095 C 11.226411 22.962078 11.226411 33.730852 22.810938 40.372835 C 34.395406 47.014852 53.177524 47.014852 64.76199 40.372835 C 70.546687 37.056182 56.49201 38.362757 56.499568 34.015756 L 73.766704 34.015765 C 73.766704 34.359632 90.70866 34.015748 90.70866 34.015748 C 91.55288 33.713225 73.45037 28.329404 73.45037 28.329404 Z"
                  fill="#949498"/>
            <path d="M 73.45037 28.329404 C 73.442814 23.982404 70.546687 19.636748 64.76199 16.320095 C 53.177524 9.6780784 34.395406 9.6780784 22.810938 16.320095 C 11.226411 22.962078 11.226411 33.730852 22.810938 40.372835 C 34.395406 47.014852 53.177524 47.014852 64.76199 40.372835 C 70.546687 37.056182 56.49201 38.362757 56.499568 34.015756 L 73.766704 34.015765 C 73.766704 34.359632 90.70866 34.015748 90.70866 34.015748 C 91.55288 33.713225 73.45037 28.329404 73.45037 28.329404 Z"
                  stroke="#6e2236" stroke-linecap="round" stroke-linejoin="round" stroke-width="2"/>
        </g>
    </g>
</svg>
