<?xml version="1.0" encoding="UTF-8" standalone="no"?>
<!DOCTYPE svg PUBLIC "-//W3C//DTD SVG 1.1//EN" "http://www.w3.org/Graphics/SVG/1.1/DTD/svg11.dtd">
<svg xmlns="http://www.w3.org/2000/svg" xmlns:xl="http://www.w3.org/1999/xlink" version="1.1" viewBox="103 171 171 115" width="171pt" height="115pt" xmlns:dc="http://purl.org/dc/elements/1.1/">
    <metadata> Produced by OmniGraffle 6.5.2 <dc:date>2016-09-15 19:04:24 +0000</dc:date></metadata><defs/>
    <g stroke="none" stroke-opacity="1" stroke-dasharray="none" fill="none" fill-opacity="1">
        <rect width="1155" height="783" fill="none"/>
    <g>
        <path d="M 260.7874 219.95079 C 260.7874 200.2134 228.4579 184.25197 188.50394 184.25197 C 148.54997 184.25197 116.22047 200.2134 116.22047 219.95079 C 116.22047 236.77075 139.93812 250.92989 171.77465 254.61972 C 169.16233 260.97038 164.85712 268.43615 158.07983 272.12598 C 171.13856 272.12598 184.05706 263.37285 192.87998 255.56349 C 230.78687 254.44837 260.7874 238.91576 260.7874 219.95079 Z" fill="white" fill-opacity=".5044964"/>
        <path d="M 260.7874 219.95079 C 260.7874 200.2134 228.4579 184.25197 188.50394 184.25197 C 148.54997 184.25197 116.22047 200.2134 116.22047 219.95079 C 116.22047 236.77075 139.93812 250.92989 171.77465 254.61972 C 169.16233 260.97038 164.85712 268.43615 158.07983 272.12598 C 171.13856 272.12598 184.05706 263.37285 192.87998 255.56349 C 230.78687 254.44837 260.7874 238.91576 260.7874 219.95079 Z" stroke="#6e2236" stroke-linecap="round" stroke-linejoin="round" stroke-width="5"/>
        <title>Click to view comments</title>
    </g>
    </g>
</svg>

