<?xml version="1.0" encoding="UTF-8" standalone="no"?>
<!DOCTYPE svg PUBLIC "-//W3C//DTD SVG 1.1//EN" "http://www.w3.org/Graphics/SVG/1.1/DTD/svg11.dtd">
<svg xmlns="http://www.w3.org/2000/svg" xmlns:xl="http://www.w3.org/1999/xlink" version="1.1" viewBox="-5 18 168 163"
     width="14pc" height="163pt" xmlns:dc="http://purl.org/dc/elements/1.1/">
    <metadata>Produced by OmniGraffle 6.5.2
        <dc:date>2016-09-21 18:47:41 +0000</dc:date>
    </metadata>
    <defs/>
    <g stroke="none" stroke-opacity="1" stroke-dasharray="none" fill="none" fill-opacity="1">
        <title>Canvas 1</title>
        <g>
            <title>Layer 1</title>
            <ellipse cx="79.199316" cy="99.2126" rx="70.695492" ry="68.031604" fill="#BEBEC1"/>
            <ellipse cx="79.199316" cy="99.2126" rx="70.695492" ry="68.031604" stroke="#6e2236" stroke-linecap="round"
                     stroke-linejoin="round" stroke-width="4"/>
            <path d="M 64.52756 85.03937 L 94.2126 85.03937 C 96.97402 85.03937 99.2126 87.277946 99.2126 90.03937 L 99.2126 119.72441 C 99.2126 122.48583 96.97402 124.72441 94.2126 124.72441 L 64.52756 124.72441 C 61.766135 124.72441 59.52756 122.48583 59.52756 119.72441 L 59.52756 90.03937 C 59.52756 87.277946 61.766135 85.03937 64.52756 85.03937 Z"
                  stroke="black" stroke-linecap="round" stroke-linejoin="round" stroke-width="4"/>
            <path d="M 65.19685 73.700787 C 65.19685 73.700787 71.339385 62.362204 79.37008 62.362204 C 87.40077 62.362204 93.543307 73.700787 93.543307 73.700787"
                  stroke="black" stroke-linecap="round" stroke-linejoin="round" stroke-width="3"/>
            <line x1="65.19685" y1="73.700787" x2="65.19685" y2="85.03937" stroke="black" stroke-linecap="round"
                  stroke-linejoin="round" stroke-width="3"/>
        </g>
    </g>
</svg>
