<?xml version="1.0" encoding="UTF-8" standalone="no"?>
<!DOCTYPE svg PUBLIC "-//W3C//DTD SVG 1.1//EN" "http://www.w3.org/Graphics/SVG/1.1/DTD/svg11.dtd">
<svg xmlns="http://www.w3.org/2000/svg" xmlns:xl="http://www.w3.org/1999/xlink" version="1.1" viewBox="1041 373 83 77" width="83pt" height="77pt" xmlns:dc="http://purl.org/dc/elements/1.1/"><metadata> Produced by OmniGraffle 6.5.2 <dc:date>2016-09-20 15:58:42 +0000</dc:date></metadata><defs><radialGradient cx="0" cy="0" r="1" id="Gradient" gradientUnits="userSpaceOnUse"><stop offset="0" stop-color="#fefdf9"/><stop offset=".6091919" stop-color="#e76465"/><stop offset="1" stop-color="#dc1734"/></radialGradient><radialGradient id="Obj_Gradient" xl:href="#Gradient" gradientTransform="translate(1082.83464 411.02362) scale(50.15)"/></defs><g stroke="none" stroke-opacity="1" stroke-dasharray="none" fill="none" fill-opacity="1"><title>Canvas 1</title><g><title>Layer 1</title><path d="M 1114.2872 408.16698 L 1119.685 411.02362 L 1114.2872 413.88026 L 1118.965 417.66758 L 1113.0991 419.52756 L 1116.8778 424.04553 L 1110.7245 424.77619 L 1113.4595 429.89147 L 1107.2694 429.55948 L 1108.88934 435.07411 L 1102.87904 433.61212 L 1103.2748 439.32608 L 1097.73325 436.80143 L 1096.9056 442.44805 L 1092.0111 438.9934 L 1089.99614 444.3747 L 1085.92934 440.05674 L 1082.83464 445.03937 L 1079.7038 440.05674 L 1075.637 444.3747 L 1073.65815 438.9934 L 1068.7276 442.44805 L 1067.8999 436.80143 L 1062.35835 439.32608 L 1062.7541 433.61212 L 1056.74456 435.07411 L 1058.36377 429.55948 L 1052.17364 429.89147 L 1054.9087 424.77619 L 1048.7554 424.04553 L 1052.53403 419.52756 L 1046.6682 417.66758 L 1051.346 413.88026 L 1045.98425 411.02362 L 1051.346 408.16698 L 1046.6682 404.37966 L 1052.53403 402.51968 L 1048.7554 398.0017 L 1054.9087 397.27105 L 1052.17364 392.15576 L 1058.36377 392.48776 L 1056.74456 386.97313 L 1062.7541 388.43512 L 1062.35835 382.72116 L 1067.8999 385.2458 L 1068.7276 379.5992 L 1073.65815 383.05383 L 1075.637 377.67254 L 1079.7038 381.9245 L 1082.7985 377.00787 L 1085.92934 381.9245 L 1089.99614 377.67254 L 1092.0111 383.05383 L 1096.9056 379.5992 L 1097.73325 385.2458 L 1103.2748 382.72116 L 1102.87904 388.43512 L 1108.88934 386.97313 L 1107.2694 392.48776 L 1113.4595 392.15576 L 1110.7245 397.27105 L 1116.8778 398.0017 L 1113.0991 402.51968 L 1118.965 404.37966 L 1114.2872 408.16698 Z" fill="url(#Obj_Gradient)"/><path d="M 1114.2872 408.16698 L 1119.685 411.02362 L 1114.2872 413.88026 L 1118.965 417.66758 L 1113.0991 419.52756 L 1116.8778 424.04553 L 1110.7245 424.77619 L 1113.4595 429.89147 L 1107.2694 429.55948 L 1108.88934 435.07411 L 1102.87904 433.61212 L 1103.2748 439.32608 L 1097.73325 436.80143 L 1096.9056 442.44805 L 1092.0111 438.9934 L 1089.99614 444.3747 L 1085.92934 440.05674 L 1082.83464 445.03937 L 1079.7038 440.05674 L 1075.637 444.3747 L 1073.65815 438.9934 L 1068.7276 442.44805 L 1067.8999 436.80143 L 1062.35835 439.32608 L 1062.7541 433.61212 L 1056.74456 435.07411 L 1058.36377 429.55948 L 1052.17364 429.89147 L 1054.9087 424.77619 L 1048.7554 424.04553 L 1052.53403 419.52756 L 1046.6682 417.66758 L 1051.346 413.88026 L 1045.98425 411.02362 L 1051.346 408.16698 L 1046.6682 404.37966 L 1052.53403 402.51968 L 1048.7554 398.0017 L 1054.9087 397.27105 L 1052.17364 392.15576 L 1058.36377 392.48776 L 1056.74456 386.97313 L 1062.7541 388.43512 L 1062.35835 382.72116 L 1067.8999 385.2458 L 1068.7276 379.5992 L 1073.65815 383.05383 L 1075.637 377.67254 L 1079.7038 381.9245 L 1082.7985 377.00787 L 1085.92934 381.9245 L 1089.99614 377.67254 L 1092.0111 383.05383 L 1096.9056 379.5992 L 1097.73325 385.2458 L 1103.2748 382.72116 L 1102.87904 388.43512 L 1108.88934 386.97313 L 1107.2694 392.48776 L 1113.4595 392.15576 L 1110.7245 397.27105 L 1116.8778 398.0017 L 1113.0991 402.51968 L 1118.965 404.37966 L 1114.2872 408.16698 Z" stroke="#e7e7e7" stroke-opacity=".5110443" stroke-linecap="round" stroke-linejoin="round" stroke-width="6"/></g></g></svg>
